<svg xmlns="http://www.w3.org/2000/svg" height="48" viewBox="0 -960 960 960" width="48"><path d="M443.283-22.24v-80.086q-139-15-232.979-108.478-93.978-93.479-108.622-232.239H21.717v-74.435h79.848q15.239-139 109.098-232.979 93.859-93.978 232.62-109.622v-79.964h74.434v79.847q137.761 15.761 231.62 109.739 93.859 93.979 110.098 232.979h79.848v74.435h-79.965q-15.644 138.76-109.622 232.239-93.979 93.478-231.979 108.397v80.168h-74.434Zm37.556-156.151q124.726 0 213.628-88.242 88.903-88.241 88.903-214.087 0-125.845-88.862-214.628-88.861-88.782-213.586-88.782-125.726 0-214.628 88.741-88.903 88.742-88.903 214.587 0 125.845 88.861 214.128 88.862 88.283 214.587 88.283Zm.041-142.435q-67.445 0-113.63-46.185t-46.185-113.63q0-67.446 46.236-113.75 46.235-46.305 113.46-46.305 66.565 0 113.25 46.306t46.685 113.629q0 67.565-46.685 113.75T480.88-320.826Z"/></svg>