<svg xmlns="http://www.w3.org/2000/svg" height="48" viewBox="0 -960 960 960" width="48"><path d="M480.084-484.761q31.155 0 53.275-22.084 22.119-22.085 22.119-53.239 0-31.155-22.134-53.275-22.134-22.119-53.359-22.119-31.224 0-53.224 22.134-22 22.134-22 53.359 0 31.224 22.084 53.224 22.085 22 53.239 22ZM480-62.804q-171.239-142-254.217-262.142-82.979-120.141-82.979-229.293 0-151.564 100.347-247.88Q343.497-898.435 480-898.435q136.401 0 236.918 96.316t100.517 247.88q0 109.152-83.098 229.293Q651.239-204.804 480-62.804Z"/></svg>